<svg xmlns="http://www.w3.org/2000/svg" viewBox="0 0 1200 400"
  role="img" aria-label="CONTRIBUTIONS 1600, COMMITS 949, PULL REQUESTS 307, REVIEWS 334, REPOSITORIES 22 in the last 12 months. CURRENT STREAK 30 DAYS · LONGEST 30.">
  <defs><linearGradient id="wash0" x1="0" y1="0" x2="1" y2="1">
    <stop offset="0" stop-color="#FFFFFF" stop-opacity="0.9"/>
    <stop offset="0.55" stop-color="#FFFFFF" stop-opacity="0"/>
    <stop offset="1" stop-color="#C9BFAE" stop-opacity="0.22"/>
  </linearGradient><filter id="grain0" x="0" y="0" width="100%" height="100%">
    <feTurbulence type="fractalNoise" baseFrequency="0.8" numOctaves="3" seed="7"/>
    <feColorMatrix type="saturate" values="0"/>
    <feComponentTransfer><feFuncA type="linear" slope="0.05"/></feComponentTransfer>
  </filter></defs>
  <rect width="1200" height="400" fill="#FAF8F4"/><rect width="1200" height="400" fill="url(#wash0)"/><rect width="1200" height="400" filter="url(#grain0)"/>
  <g font-family="-apple-system,BlinkMacSystemFont,'Segoe UI','Helvetica Neue',Helvetica,Arial,'Hiragino Sans','Noto Sans JP',sans-serif">
    <text x="124.0" y="72" font-size="10" font-weight="500" letter-spacing="2.6" fill="#7E766B">CONTRIBUTIONS</text>
    <text x="122.0" y="122" font-size="38" font-weight="200" letter-spacing="0.5" fill="#35322D">1,600</text><line x1="297.6" y1="52" x2="297.6" y2="126" stroke="#DCD5C9" stroke-width="1"/>
    <text x="325.6" y="72" font-size="10" font-weight="500" letter-spacing="2.6" fill="#7E766B">COMMITS</text>
    <text x="323.6" y="122" font-size="38" font-weight="200" letter-spacing="0.5" fill="#35322D">949</text><line x1="499.2" y1="52" x2="499.2" y2="126" stroke="#DCD5C9" stroke-width="1"/>
    <text x="527.2" y="72" font-size="10" font-weight="500" letter-spacing="2.6" fill="#7E766B">PULL REQUESTS</text>
    <text x="525.2" y="122" font-size="38" font-weight="200" letter-spacing="0.5" fill="#35322D">307</text><line x1="700.8" y1="52" x2="700.8" y2="126" stroke="#DCD5C9" stroke-width="1"/>
    <text x="728.8" y="72" font-size="10" font-weight="500" letter-spacing="2.6" fill="#7E766B">REVIEWS</text>
    <text x="726.8" y="122" font-size="38" font-weight="200" letter-spacing="0.5" fill="#35322D">334</text><line x1="902.4" y1="52" x2="902.4" y2="126" stroke="#DCD5C9" stroke-width="1"/>
    <text x="930.4" y="72" font-size="10" font-weight="500" letter-spacing="2.6" fill="#7E766B">REPOSITORIES</text>
    <text x="928.4" y="122" font-size="38" font-weight="200" letter-spacing="0.5" fill="#35322D">22</text>
    <line x1="96" y1="170" x2="1104" y2="170" stroke="#DCD5C9" stroke-width="1"/>
    <text x="96" y="196" font-size="10" font-weight="500" letter-spacing="2.6" fill="#7E766B">LAST 12 MONTHS</text>
    <text x="1104" y="196" text-anchor="end" font-size="10" font-weight="500" letter-spacing="2.6" fill="#A78F73">CURRENT STREAK 30 DAYS · LONGEST 30</text>
    <rect x="96" y="214" width="15" height="15" rx="1.5" fill="#E8E2D7"/><rect x="96" y="233" width="15" height="15" rx="1.5" fill="#E8E2D7"/><rect x="96" y="252" width="15" height="15" rx="1.5" fill="#A18A6A"/><rect x="96" y="271" width="15" height="15" rx="1.5" fill="#D5C9B3"/><rect x="96" y="290" width="15" height="15" rx="1.5" fill="#BEAC90"/><rect x="96" y="309" width="15" height="15" rx="1.5" fill="#BEAC90"/><rect x="96" y="328" width="15" height="15" rx="1.5" fill="#E8E2D7"/><rect x="115" y="214" width="15" height="15" rx="1.5" fill="#D5C9B3"/><rect x="115" y="233" width="15" height="15" rx="1.5" fill="#A18A6A"/><rect x="115" y="252" width="15" height="15" rx="1.5" fill="#A18A6A"/><rect x="115" y="271" width="15" height="15" rx="1.5" fill="#E8E2D7"/><rect x="115" y="290" width="15" height="15" rx="1.5" fill="#E8E2D7"/><rect x="115" y="309" width="15" height="15" rx="1.5" fill="#E8E2D7"/><rect x="115" y="328" width="15" height="15" rx="1.5" fill="#E8E2D7"/><rect x="134" y="214" width="15" height="15" rx="1.5" fill="#E8E2D7"/><rect x="134" y="233" width="15" height="15" rx="1.5" fill="#A18A6A"/><rect x="134" y="252" width="15" height="15" rx="1.5" fill="#7B674B"/><rect x="134" y="271" width="15" height="15" rx="1.5" fill="#D5C9B3"/><rect x="134" y="290" width="15" height="15" rx="1.5" fill="#E8E2D7"/><rect x="134" y="309" width="15" height="15" rx="1.5" fill="#A18A6A"/><rect x="134" y="328" width="15" height="15" rx="1.5" fill="#E8E2D7"/><rect x="153" y="214" width="15" height="15" rx="1.5" fill="#E8E2D7"/><rect x="153" y="233" width="15" height="15" rx="1.5" fill="#E8E2D7"/><rect x="153" y="252" width="15" height="15" rx="1.5" fill="#E8E2D7"/><rect x="153" y="271" width="15" height="15" rx="1.5" fill="#A18A6A"/><rect x="153" y="290" width="15" height="15" rx="1.5" fill="#7B674B"/><rect x="153" y="309" width="15" height="15" rx="1.5" fill="#BEAC90"/><rect x="153" y="328" width="15" height="15" rx="1.5" fill="#D5C9B3"/><rect x="172" y="214" width="15" height="15" rx="1.5" fill="#E8E2D7"/><rect x="172" y="233" width="15" height="15" rx="1.5" fill="#E8E2D7"/><rect x="172" y="252" width="15" height="15" rx="1.5" fill="#E8E2D7"/><rect x="172" y="271" width="15" height="15" rx="1.5" fill="#BEAC90"/><rect x="172" y="290" width="15" height="15" rx="1.5" fill="#A18A6A"/><rect x="172" y="309" width="15" height="15" rx="1.5" fill="#D5C9B3"/><rect x="172" y="328" width="15" height="15" rx="1.5" fill="#E8E2D7"/><rect x="191" y="214" width="15" height="15" rx="1.5" fill="#E8E2D7"/><rect x="191" y="233" width="15" height="15" rx="1.5" fill="#A18A6A"/><rect x="191" y="252" width="15" height="15" rx="1.5" fill="#E8E2D7"/><rect x="191" y="271" width="15" height="15" rx="1.5" fill="#A18A6A"/><rect x="191" y="290" width="15" height="15" rx="1.5" fill="#E8E2D7"/><rect x="191" y="309" width="15" height="15" rx="1.5" fill="#E8E2D7"/><rect x="191" y="328" width="15" height="15" rx="1.5" fill="#E8E2D7"/><rect x="210" y="214" width="15" height="15" rx="1.5" fill="#D5C9B3"/><rect x="210" y="233" width="15" height="15" rx="1.5" fill="#BEAC90"/><rect x="210" y="252" width="15" height="15" rx="1.5" fill="#BEAC90"/><rect x="210" y="271" width="15" height="15" rx="1.5" fill="#A18A6A"/><rect x="210" y="290" width="15" height="15" rx="1.5" fill="#D5C9B3"/><rect x="210" y="309" width="15" height="15" rx="1.5" fill="#BEAC90"/><rect x="210" y="328" width="15" height="15" rx="1.5" fill="#E8E2D7"/><rect x="229" y="214" width="15" height="15" rx="1.5" fill="#E8E2D7"/><rect x="229" y="233" width="15" height="15" rx="1.5" fill="#E8E2D7"/><rect x="229" y="252" width="15" height="15" rx="1.5" fill="#E8E2D7"/><rect x="229" y="271" width="15" height="15" rx="1.5" fill="#D5C9B3"/><rect x="229" y="290" width="15" height="15" rx="1.5" fill="#BEAC90"/><rect x="229" y="309" width="15" height="15" rx="1.5" fill="#E8E2D7"/><rect x="229" y="328" width="15" height="15" rx="1.5" fill="#E8E2D7"/><rect x="248" y="214" width="15" height="15" rx="1.5" fill="#D5C9B3"/><rect x="248" y="233" width="15" height="15" rx="1.5" fill="#BEAC90"/><rect x="248" y="252" width="15" height="15" rx="1.5" fill="#E8E2D7"/><rect x="248" y="271" width="15" height="15" rx="1.5" fill="#7B674B"/><rect x="248" y="290" width="15" height="15" rx="1.5" fill="#E8E2D7"/><rect x="248" y="309" width="15" height="15" rx="1.5" fill="#BEAC90"/><rect x="248" y="328" width="15" height="15" rx="1.5" fill="#E8E2D7"/><rect x="267" y="214" width="15" height="15" rx="1.5" fill="#BEAC90"/><rect x="267" y="233" width="15" height="15" rx="1.5" fill="#D5C9B3"/><rect x="267" y="252" width="15" height="15" rx="1.5" fill="#D5C9B3"/><rect x="267" y="271" width="15" height="15" rx="1.5" fill="#7B674B"/><rect x="267" y="290" width="15" height="15" rx="1.5" fill="#A18A6A"/><rect x="267" y="309" width="15" height="15" rx="1.5" fill="#7B674B"/><rect x="267" y="328" width="15" height="15" rx="1.5" fill="#D5C9B3"/><rect x="286" y="214" width="15" height="15" rx="1.5" fill="#BEAC90"/><rect x="286" y="233" width="15" height="15" rx="1.5" fill="#E8E2D7"/><rect x="286" y="252" width="15" height="15" rx="1.5" fill="#D5C9B3"/><rect x="286" y="271" width="15" height="15" rx="1.5" fill="#E8E2D7"/><rect x="286" y="290" width="15" height="15" rx="1.5" fill="#A18A6A"/><rect x="286" y="309" width="15" height="15" rx="1.5" fill="#BEAC90"/><rect x="286" y="328" width="15" height="15" rx="1.5" fill="#E8E2D7"/><rect x="305" y="214" width="15" height="15" rx="1.5" fill="#BEAC90"/><rect x="305" y="233" width="15" height="15" rx="1.5" fill="#D5C9B3"/><rect x="305" y="252" width="15" height="15" rx="1.5" fill="#D5C9B3"/><rect x="305" y="271" width="15" height="15" rx="1.5" fill="#BEAC90"/><rect x="305" y="290" width="15" height="15" rx="1.5" fill="#E8E2D7"/><rect x="305" y="309" width="15" height="15" rx="1.5" fill="#BEAC90"/><rect x="305" y="328" width="15" height="15" rx="1.5" fill="#D5C9B3"/><rect x="324" y="214" width="15" height="15" rx="1.5" fill="#D5C9B3"/><rect x="324" y="233" width="15" height="15" rx="1.5" fill="#A18A6A"/><rect x="324" y="252" width="15" height="15" rx="1.5" fill="#D5C9B3"/><rect x="324" y="271" width="15" height="15" rx="1.5" fill="#D5C9B3"/><rect x="324" y="290" width="15" height="15" rx="1.5" fill="#BEAC90"/><rect x="324" y="309" width="15" height="15" rx="1.5" fill="#BEAC90"/><rect x="324" y="328" width="15" height="15" rx="1.5" fill="#E8E2D7"/><rect x="343" y="214" width="15" height="15" rx="1.5" fill="#A18A6A"/><rect x="343" y="233" width="15" height="15" rx="1.5" fill="#E8E2D7"/><rect x="343" y="252" width="15" height="15" rx="1.5" fill="#E8E2D7"/><rect x="343" y="271" width="15" height="15" rx="1.5" fill="#BEAC90"/><rect x="343" y="290" width="15" height="15" rx="1.5" fill="#D5C9B3"/><rect x="343" y="309" width="15" height="15" rx="1.5" fill="#A18A6A"/><rect x="343" y="328" width="15" height="15" rx="1.5" fill="#E8E2D7"/><rect x="362" y="214" width="15" height="15" rx="1.5" fill="#E8E2D7"/><rect x="362" y="233" width="15" height="15" rx="1.5" fill="#A18A6A"/><rect x="362" y="252" width="15" height="15" rx="1.5" fill="#BEAC90"/><rect x="362" y="271" width="15" height="15" rx="1.5" fill="#E8E2D7"/><rect x="362" y="290" width="15" height="15" rx="1.5" fill="#D5C9B3"/><rect x="362" y="309" width="15" height="15" rx="1.5" fill="#BEAC90"/><rect x="362" y="328" width="15" height="15" rx="1.5" fill="#A18A6A"/><rect x="381" y="214" width="15" height="15" rx="1.5" fill="#A18A6A"/><rect x="381" y="233" width="15" height="15" rx="1.5" fill="#D5C9B3"/><rect x="381" y="252" width="15" height="15" rx="1.5" fill="#A18A6A"/><rect x="381" y="271" width="15" height="15" rx="1.5" fill="#BEAC90"/><rect x="381" y="290" width="15" height="15" rx="1.5" fill="#BEAC90"/><rect x="381" y="309" width="15" height="15" rx="1.5" fill="#A18A6A"/><rect x="381" y="328" width="15" height="15" rx="1.5" fill="#E8E2D7"/><rect x="400" y="214" width="15" height="15" rx="1.5" fill="#E8E2D7"/><rect x="400" y="233" width="15" height="15" rx="1.5" fill="#BEAC90"/><rect x="400" y="252" width="15" height="15" rx="1.5" fill="#A18A6A"/><rect x="400" y="271" width="15" height="15" rx="1.5" fill="#E8E2D7"/><rect x="400" y="290" width="15" height="15" rx="1.5" fill="#BEAC90"/><rect x="400" y="309" width="15" height="15" rx="1.5" fill="#A18A6A"/><rect x="400" y="328" width="15" height="15" rx="1.5" fill="#E8E2D7"/><rect x="419" y="214" width="15" height="15" rx="1.5" fill="#E8E2D7"/><rect x="419" y="233" width="15" height="15" rx="1.5" fill="#BEAC90"/><rect x="419" y="252" width="15" height="15" rx="1.5" fill="#D5C9B3"/><rect x="419" y="271" width="15" height="15" rx="1.5" fill="#D5C9B3"/><rect x="419" y="290" width="15" height="15" rx="1.5" fill="#BEAC90"/><rect x="419" y="309" width="15" height="15" rx="1.5" fill="#E8E2D7"/><rect x="419" y="328" width="15" height="15" rx="1.5" fill="#D5C9B3"/><rect x="438" y="214" width="15" height="15" rx="1.5" fill="#E8E2D7"/><rect x="438" y="233" width="15" height="15" rx="1.5" fill="#E8E2D7"/><rect x="438" y="252" width="15" height="15" rx="1.5" fill="#E8E2D7"/><rect x="438" y="271" width="15" height="15" rx="1.5" fill="#E8E2D7"/><rect x="438" y="290" width="15" height="15" rx="1.5" fill="#D5C9B3"/><rect x="438" y="309" width="15" height="15" rx="1.5" fill="#A18A6A"/><rect x="438" y="328" width="15" height="15" rx="1.5" fill="#BEAC90"/><rect x="457" y="214" width="15" height="15" rx="1.5" fill="#E8E2D7"/><rect x="457" y="233" width="15" height="15" rx="1.5" fill="#E8E2D7"/><rect x="457" y="252" width="15" height="15" rx="1.5" fill="#BEAC90"/><rect x="457" y="271" width="15" height="15" rx="1.5" fill="#D5C9B3"/><rect x="457" y="290" width="15" height="15" rx="1.5" fill="#BEAC90"/><rect x="457" y="309" width="15" height="15" rx="1.5" fill="#A18A6A"/><rect x="457" y="328" width="15" height="15" rx="1.5" fill="#D5C9B3"/><rect x="476" y="214" width="15" height="15" rx="1.5" fill="#E8E2D7"/><rect x="476" y="233" width="15" height="15" rx="1.5" fill="#E8E2D7"/><rect x="476" y="252" width="15" height="15" rx="1.5" fill="#A18A6A"/><rect x="476" y="271" width="15" height="15" rx="1.5" fill="#D5C9B3"/><rect x="476" y="290" width="15" height="15" rx="1.5" fill="#A18A6A"/><rect x="476" y="309" width="15" height="15" rx="1.5" fill="#E8E2D7"/><rect x="476" y="328" width="15" height="15" rx="1.5" fill="#E8E2D7"/><rect x="495" y="214" width="15" height="15" rx="1.5" fill="#E8E2D7"/><rect x="495" y="233" width="15" height="15" rx="1.5" fill="#E8E2D7"/><rect x="495" y="252" width="15" height="15" rx="1.5" fill="#BEAC90"/><rect x="495" y="271" width="15" height="15" rx="1.5" fill="#D5C9B3"/><rect x="495" y="290" width="15" height="15" rx="1.5" fill="#7B674B"/><rect x="495" y="309" width="15" height="15" rx="1.5" fill="#A18A6A"/><rect x="495" y="328" width="15" height="15" rx="1.5" fill="#E8E2D7"/><rect x="514" y="214" width="15" height="15" rx="1.5" fill="#E8E2D7"/><rect x="514" y="233" width="15" height="15" rx="1.5" fill="#A18A6A"/><rect x="514" y="252" width="15" height="15" rx="1.5" fill="#D5C9B3"/><rect x="514" y="271" width="15" height="15" rx="1.5" fill="#BEAC90"/><rect x="514" y="290" width="15" height="15" rx="1.5" fill="#BEAC90"/><rect x="514" y="309" width="15" height="15" rx="1.5" fill="#D5C9B3"/><rect x="514" y="328" width="15" height="15" rx="1.5" fill="#E8E2D7"/><rect x="533" y="214" width="15" height="15" rx="1.5" fill="#A18A6A"/><rect x="533" y="233" width="15" height="15" rx="1.5" fill="#E8E2D7"/><rect x="533" y="252" width="15" height="15" rx="1.5" fill="#BEAC90"/><rect x="533" y="271" width="15" height="15" rx="1.5" fill="#D5C9B3"/><rect x="533" y="290" width="15" height="15" rx="1.5" fill="#E8E2D7"/><rect x="533" y="309" width="15" height="15" rx="1.5" fill="#A18A6A"/><rect x="533" y="328" width="15" height="15" rx="1.5" fill="#E8E2D7"/><rect x="552" y="214" width="15" height="15" rx="1.5" fill="#BEAC90"/><rect x="552" y="233" width="15" height="15" rx="1.5" fill="#BEAC90"/><rect x="552" y="252" width="15" height="15" rx="1.5" fill="#BEAC90"/><rect x="552" y="271" width="15" height="15" rx="1.5" fill="#E8E2D7"/><rect x="552" y="290" width="15" height="15" rx="1.5" fill="#E8E2D7"/><rect x="552" y="309" width="15" height="15" rx="1.5" fill="#A18A6A"/><rect x="552" y="328" width="15" height="15" rx="1.5" fill="#D5C9B3"/><rect x="571" y="214" width="15" height="15" rx="1.5" fill="#D5C9B3"/><rect x="571" y="233" width="15" height="15" rx="1.5" fill="#E8E2D7"/><rect x="571" y="252" width="15" height="15" rx="1.5" fill="#7B674B"/><rect x="571" y="271" width="15" height="15" rx="1.5" fill="#D5C9B3"/><rect x="571" y="290" width="15" height="15" rx="1.5" fill="#BEAC90"/><rect x="571" y="309" width="15" height="15" rx="1.5" fill="#D5C9B3"/><rect x="571" y="328" width="15" height="15" rx="1.5" fill="#E8E2D7"/><rect x="590" y="214" width="15" height="15" rx="1.5" fill="#BEAC90"/><rect x="590" y="233" width="15" height="15" rx="1.5" fill="#E8E2D7"/><rect x="590" y="252" width="15" height="15" rx="1.5" fill="#BEAC90"/><rect x="590" y="271" width="15" height="15" rx="1.5" fill="#D5C9B3"/><rect x="590" y="290" width="15" height="15" rx="1.5" fill="#D5C9B3"/><rect x="590" y="309" width="15" height="15" rx="1.5" fill="#E8E2D7"/><rect x="590" y="328" width="15" height="15" rx="1.5" fill="#E8E2D7"/><rect x="609" y="214" width="15" height="15" rx="1.5" fill="#E8E2D7"/><rect x="609" y="233" width="15" height="15" rx="1.5" fill="#A18A6A"/><rect x="609" y="252" width="15" height="15" rx="1.5" fill="#D5C9B3"/><rect x="609" y="271" width="15" height="15" rx="1.5" fill="#E8E2D7"/><rect x="609" y="290" width="15" height="15" rx="1.5" fill="#E8E2D7"/><rect x="609" y="309" width="15" height="15" rx="1.5" fill="#E8E2D7"/><rect x="609" y="328" width="15" height="15" rx="1.5" fill="#E8E2D7"/><rect x="628" y="214" width="15" height="15" rx="1.5" fill="#A18A6A"/><rect x="628" y="233" width="15" height="15" rx="1.5" fill="#E8E2D7"/><rect x="628" y="252" width="15" height="15" rx="1.5" fill="#7B674B"/><rect x="628" y="271" width="15" height="15" rx="1.5" fill="#BEAC90"/><rect x="628" y="290" width="15" height="15" rx="1.5" fill="#A18A6A"/><rect x="628" y="309" width="15" height="15" rx="1.5" fill="#7B674B"/><rect x="628" y="328" width="15" height="15" rx="1.5" fill="#E8E2D7"/><rect x="647" y="214" width="15" height="15" rx="1.5" fill="#D5C9B3"/><rect x="647" y="233" width="15" height="15" rx="1.5" fill="#BEAC90"/><rect x="647" y="252" width="15" height="15" rx="1.5" fill="#E8E2D7"/><rect x="647" y="271" width="15" height="15" rx="1.5" fill="#BEAC90"/><rect x="647" y="290" width="15" height="15" rx="1.5" fill="#BEAC90"/><rect x="647" y="309" width="15" height="15" rx="1.5" fill="#E8E2D7"/><rect x="647" y="328" width="15" height="15" rx="1.5" fill="#7B674B"/><rect x="666" y="214" width="15" height="15" rx="1.5" fill="#BEAC90"/><rect x="666" y="233" width="15" height="15" rx="1.5" fill="#BEAC90"/><rect x="666" y="252" width="15" height="15" rx="1.5" fill="#A18A6A"/><rect x="666" y="271" width="15" height="15" rx="1.5" fill="#7B674B"/><rect x="666" y="290" width="15" height="15" rx="1.5" fill="#7B674B"/><rect x="666" y="309" width="15" height="15" rx="1.5" fill="#D5C9B3"/><rect x="666" y="328" width="15" height="15" rx="1.5" fill="#E8E2D7"/><rect x="685" y="214" width="15" height="15" rx="1.5" fill="#E8E2D7"/><rect x="685" y="233" width="15" height="15" rx="1.5" fill="#E8E2D7"/><rect x="685" y="252" width="15" height="15" rx="1.5" fill="#E8E2D7"/><rect x="685" y="271" width="15" height="15" rx="1.5" fill="#BEAC90"/><rect x="685" y="290" width="15" height="15" rx="1.5" fill="#D5C9B3"/><rect x="685" y="309" width="15" height="15" rx="1.5" fill="#A18A6A"/><rect x="685" y="328" width="15" height="15" rx="1.5" fill="#A18A6A"/><rect x="704" y="214" width="15" height="15" rx="1.5" fill="#E8E2D7"/><rect x="704" y="233" width="15" height="15" rx="1.5" fill="#E8E2D7"/><rect x="704" y="252" width="15" height="15" rx="1.5" fill="#E8E2D7"/><rect x="704" y="271" width="15" height="15" rx="1.5" fill="#A18A6A"/><rect x="704" y="290" width="15" height="15" rx="1.5" fill="#E8E2D7"/><rect x="704" y="309" width="15" height="15" rx="1.5" fill="#A18A6A"/><rect x="704" y="328" width="15" height="15" rx="1.5" fill="#E8E2D7"/><rect x="723" y="214" width="15" height="15" rx="1.5" fill="#E8E2D7"/><rect x="723" y="233" width="15" height="15" rx="1.5" fill="#7B674B"/><rect x="723" y="252" width="15" height="15" rx="1.5" fill="#A18A6A"/><rect x="723" y="271" width="15" height="15" rx="1.5" fill="#E8E2D7"/><rect x="723" y="290" width="15" height="15" rx="1.5" fill="#7B674B"/><rect x="723" y="309" width="15" height="15" rx="1.5" fill="#D5C9B3"/><rect x="723" y="328" width="15" height="15" rx="1.5" fill="#E8E2D7"/><rect x="742" y="214" width="15" height="15" rx="1.5" fill="#BEAC90"/><rect x="742" y="233" width="15" height="15" rx="1.5" fill="#BEAC90"/><rect x="742" y="252" width="15" height="15" rx="1.5" fill="#BEAC90"/><rect x="742" y="271" width="15" height="15" rx="1.5" fill="#E8E2D7"/><rect x="742" y="290" width="15" height="15" rx="1.5" fill="#E8E2D7"/><rect x="742" y="309" width="15" height="15" rx="1.5" fill="#D5C9B3"/><rect x="742" y="328" width="15" height="15" rx="1.5" fill="#E8E2D7"/><rect x="761" y="214" width="15" height="15" rx="1.5" fill="#BEAC90"/><rect x="761" y="233" width="15" height="15" rx="1.5" fill="#D5C9B3"/><rect x="761" y="252" width="15" height="15" rx="1.5" fill="#D5C9B3"/><rect x="761" y="271" width="15" height="15" rx="1.5" fill="#E8E2D7"/><rect x="761" y="290" width="15" height="15" rx="1.5" fill="#D5C9B3"/><rect x="761" y="309" width="15" height="15" rx="1.5" fill="#A18A6A"/><rect x="761" y="328" width="15" height="15" rx="1.5" fill="#E8E2D7"/><rect x="780" y="214" width="15" height="15" rx="1.5" fill="#E8E2D7"/><rect x="780" y="233" width="15" height="15" rx="1.5" fill="#BEAC90"/><rect x="780" y="252" width="15" height="15" rx="1.5" fill="#E8E2D7"/><rect x="780" y="271" width="15" height="15" rx="1.5" fill="#E8E2D7"/><rect x="780" y="290" width="15" height="15" rx="1.5" fill="#A18A6A"/><rect x="780" y="309" width="15" height="15" rx="1.5" fill="#A18A6A"/><rect x="780" y="328" width="15" height="15" rx="1.5" fill="#D5C9B3"/><rect x="799" y="214" width="15" height="15" rx="1.5" fill="#E8E2D7"/><rect x="799" y="233" width="15" height="15" rx="1.5" fill="#A18A6A"/><rect x="799" y="252" width="15" height="15" rx="1.5" fill="#BEAC90"/><rect x="799" y="271" width="15" height="15" rx="1.5" fill="#D5C9B3"/><rect x="799" y="290" width="15" height="15" rx="1.5" fill="#D5C9B3"/><rect x="799" y="309" width="15" height="15" rx="1.5" fill="#BEAC90"/><rect x="799" y="328" width="15" height="15" rx="1.5" fill="#D5C9B3"/><rect x="818" y="214" width="15" height="15" rx="1.5" fill="#E8E2D7"/><rect x="818" y="233" width="15" height="15" rx="1.5" fill="#E8E2D7"/><rect x="818" y="252" width="15" height="15" rx="1.5" fill="#D5C9B3"/><rect x="818" y="271" width="15" height="15" rx="1.5" fill="#D5C9B3"/><rect x="818" y="290" width="15" height="15" rx="1.5" fill="#BEAC90"/><rect x="818" y="309" width="15" height="15" rx="1.5" fill="#BEAC90"/><rect x="818" y="328" width="15" height="15" rx="1.5" fill="#E8E2D7"/><rect x="837" y="214" width="15" height="15" rx="1.5" fill="#E8E2D7"/><rect x="837" y="233" width="15" height="15" rx="1.5" fill="#E8E2D7"/><rect x="837" y="252" width="15" height="15" rx="1.5" fill="#E8E2D7"/><rect x="837" y="271" width="15" height="15" rx="1.5" fill="#7B674B"/><rect x="837" y="290" width="15" height="15" rx="1.5" fill="#D5C9B3"/><rect x="837" y="309" width="15" height="15" rx="1.5" fill="#E8E2D7"/><rect x="837" y="328" width="15" height="15" rx="1.5" fill="#E8E2D7"/><rect x="856" y="214" width="15" height="15" rx="1.5" fill="#E8E2D7"/><rect x="856" y="233" width="15" height="15" rx="1.5" fill="#D5C9B3"/><rect x="856" y="252" width="15" height="15" rx="1.5" fill="#E8E2D7"/><rect x="856" y="271" width="15" height="15" rx="1.5" fill="#A18A6A"/><rect x="856" y="290" width="15" height="15" rx="1.5" fill="#7B674B"/><rect x="856" y="309" width="15" height="15" rx="1.5" fill="#7B674B"/><rect x="856" y="328" width="15" height="15" rx="1.5" fill="#A18A6A"/><rect x="875" y="214" width="15" height="15" rx="1.5" fill="#7B674B"/><rect x="875" y="233" width="15" height="15" rx="1.5" fill="#7B674B"/><rect x="875" y="252" width="15" height="15" rx="1.5" fill="#7B674B"/><rect x="875" y="271" width="15" height="15" rx="1.5" fill="#7B674B"/><rect x="875" y="290" width="15" height="15" rx="1.5" fill="#BEAC90"/><rect x="875" y="309" width="15" height="15" rx="1.5" fill="#E8E2D7"/><rect x="875" y="328" width="15" height="15" rx="1.5" fill="#E8E2D7"/><rect x="894" y="214" width="15" height="15" rx="1.5" fill="#E8E2D7"/><rect x="894" y="233" width="15" height="15" rx="1.5" fill="#E8E2D7"/><rect x="894" y="252" width="15" height="15" rx="1.5" fill="#D5C9B3"/><rect x="894" y="271" width="15" height="15" rx="1.5" fill="#D5C9B3"/><rect x="894" y="290" width="15" height="15" rx="1.5" fill="#7B674B"/><rect x="894" y="309" width="15" height="15" rx="1.5" fill="#A18A6A"/><rect x="894" y="328" width="15" height="15" rx="1.5" fill="#E8E2D7"/><rect x="913" y="214" width="15" height="15" rx="1.5" fill="#E8E2D7"/><rect x="913" y="233" width="15" height="15" rx="1.5" fill="#BEAC90"/><rect x="913" y="252" width="15" height="15" rx="1.5" fill="#7B674B"/><rect x="913" y="271" width="15" height="15" rx="1.5" fill="#7B674B"/><rect x="913" y="290" width="15" height="15" rx="1.5" fill="#7B674B"/><rect x="913" y="309" width="15" height="15" rx="1.5" fill="#BEAC90"/><rect x="913" y="328" width="15" height="15" rx="1.5" fill="#BEAC90"/><rect x="932" y="214" width="15" height="15" rx="1.5" fill="#E8E2D7"/><rect x="932" y="233" width="15" height="15" rx="1.5" fill="#BEAC90"/><rect x="932" y="252" width="15" height="15" rx="1.5" fill="#7B674B"/><rect x="932" y="271" width="15" height="15" rx="1.5" fill="#E8E2D7"/><rect x="932" y="290" width="15" height="15" rx="1.5" fill="#7B674B"/><rect x="932" y="309" width="15" height="15" rx="1.5" fill="#7B674B"/><rect x="932" y="328" width="15" height="15" rx="1.5" fill="#A18A6A"/><rect x="951" y="214" width="15" height="15" rx="1.5" fill="#E8E2D7"/><rect x="951" y="233" width="15" height="15" rx="1.5" fill="#E8E2D7"/><rect x="951" y="252" width="15" height="15" rx="1.5" fill="#7B674B"/><rect x="951" y="271" width="15" height="15" rx="1.5" fill="#E8E2D7"/><rect x="951" y="290" width="15" height="15" rx="1.5" fill="#E8E2D7"/><rect x="951" y="309" width="15" height="15" rx="1.5" fill="#BEAC90"/><rect x="951" y="328" width="15" height="15" rx="1.5" fill="#BEAC90"/><rect x="970" y="214" width="15" height="15" rx="1.5" fill="#7B674B"/><rect x="970" y="233" width="15" height="15" rx="1.5" fill="#7B674B"/><rect x="970" y="252" width="15" height="15" rx="1.5" fill="#E8E2D7"/><rect x="970" y="271" width="15" height="15" rx="1.5" fill="#D5C9B3"/><rect x="970" y="290" width="15" height="15" rx="1.5" fill="#7B674B"/><rect x="970" y="309" width="15" height="15" rx="1.5" fill="#BEAC90"/><rect x="970" y="328" width="15" height="15" rx="1.5" fill="#A18A6A"/><rect x="989" y="214" width="15" height="15" rx="1.5" fill="#A18A6A"/><rect x="989" y="233" width="15" height="15" rx="1.5" fill="#A18A6A"/><rect x="989" y="252" width="15" height="15" rx="1.5" fill="#A18A6A"/><rect x="989" y="271" width="15" height="15" rx="1.5" fill="#7B674B"/><rect x="989" y="290" width="15" height="15" rx="1.5" fill="#E8E2D7"/><rect x="989" y="309" width="15" height="15" rx="1.5" fill="#E8E2D7"/><rect x="989" y="328" width="15" height="15" rx="1.5" fill="#E8E2D7"/><rect x="1008" y="214" width="15" height="15" rx="1.5" fill="#A18A6A"/><rect x="1008" y="233" width="15" height="15" rx="1.5" fill="#D5C9B3"/><rect x="1008" y="252" width="15" height="15" rx="1.5" fill="#7B674B"/><rect x="1008" y="271" width="15" height="15" rx="1.5" fill="#7B674B"/><rect x="1008" y="290" width="15" height="15" rx="1.5" fill="#7B674B"/><rect x="1008" y="309" width="15" height="15" rx="1.5" fill="#7B674B"/><rect x="1008" y="328" width="15" height="15" rx="1.5" fill="#D5C9B3"/><rect x="1027" y="214" width="15" height="15" rx="1.5" fill="#D5C9B3"/><rect x="1027" y="233" width="15" height="15" rx="1.5" fill="#7B674B"/><rect x="1027" y="252" width="15" height="15" rx="1.5" fill="#7B674B"/><rect x="1027" y="271" width="15" height="15" rx="1.5" fill="#7B674B"/><rect x="1027" y="290" width="15" height="15" rx="1.5" fill="#A18A6A"/><rect x="1027" y="309" width="15" height="15" rx="1.5" fill="#7B674B"/><rect x="1027" y="328" width="15" height="15" rx="1.5" fill="#D5C9B3"/><rect x="1046" y="214" width="15" height="15" rx="1.5" fill="#7B674B"/><rect x="1046" y="233" width="15" height="15" rx="1.5" fill="#7B674B"/><rect x="1046" y="252" width="15" height="15" rx="1.5" fill="#7B674B"/><rect x="1046" y="271" width="15" height="15" rx="1.5" fill="#7B674B"/><rect x="1046" y="290" width="15" height="15" rx="1.5" fill="#7B674B"/><rect x="1046" y="309" width="15" height="15" rx="1.5" fill="#7B674B"/><rect x="1046" y="328" width="15" height="15" rx="1.5" fill="#7B674B"/><rect x="1065" y="214" width="15" height="15" rx="1.5" fill="#A18A6A"/><rect x="1065" y="233" width="15" height="15" rx="1.5" fill="#7B674B"/><rect x="1065" y="252" width="15" height="15" rx="1.5" fill="#7B674B"/><rect x="1065" y="271" width="15" height="15" rx="1.5" fill="#7B674B"/><rect x="1065" y="290" width="15" height="15" rx="1.5" fill="#7B674B"/><rect x="1065" y="309" width="15" height="15" rx="1.5" fill="#7B674B"/><rect x="1065" y="328" width="15" height="15" rx="1.5" fill="#A18A6A"/><rect x="1084" y="214" width="15" height="15" rx="1.5" fill="#BEAC90"/><rect x="1084" y="233" width="15" height="15" rx="1.5" fill="#A18A6A"/><text x="134" y="369" font-size="9" font-weight="500" letter-spacing="1.8" fill="#7E766B" opacity="0.55">SEP</text><text x="210" y="369" font-size="9" font-weight="500" letter-spacing="1.8" fill="#7E766B" opacity="0.55">OCT</text><text x="286" y="369" font-size="9" font-weight="500" letter-spacing="1.8" fill="#7E766B" opacity="0.55">NOV</text><text x="381" y="369" font-size="9" font-weight="500" letter-spacing="1.8" fill="#7E766B" opacity="0.55">DEC</text><text x="457" y="369" font-size="9" font-weight="500" letter-spacing="1.8" fill="#7E766B" opacity="0.55">JAN</text><text x="533" y="369" font-size="9" font-weight="500" letter-spacing="1.8" fill="#7E766B" opacity="0.55">FEB</text><text x="609" y="369" font-size="9" font-weight="500" letter-spacing="1.8" fill="#7E766B" opacity="0.55">MAR</text><text x="704" y="369" font-size="9" font-weight="500" letter-spacing="1.8" fill="#7E766B" opacity="0.55">APR</text><text x="780" y="369" font-size="9" font-weight="500" letter-spacing="1.8" fill="#7E766B" opacity="0.55">MAY</text><text x="875" y="369" font-size="9" font-weight="500" letter-spacing="1.8" fill="#7E766B" opacity="0.55">JUN</text><text x="951" y="369" font-size="9" font-weight="500" letter-spacing="1.8" fill="#7E766B" opacity="0.55">JUL</text><text x="1027" y="369" font-size="9" font-weight="500" letter-spacing="1.8" fill="#7E766B" opacity="0.55">AUG</text>
  </g>
</svg>
